<svg id="Layer_1" data-name="Layer 1" xmlns="http://www.w3.org/2000/svg" viewBox="0 0 30 30"><defs><style>.cls-1{fill:#22ad65;}</style></defs><title>linked-in</title><path class="cls-1" d="M1.63,28.06H5.35a.93.93,0,0,0,.93-.93V10.88A.93.93,0,0,0,5.35,10H1.63a.93.93,0,0,0-.93.92V27.13A.93.93,0,0,0,1.63,28.06Z"/><path class="cls-1" d="M1.63,7.1H5.35a.93.93,0,0,0,.93-.93V2.87a.93.93,0,0,0-.93-.93H1.63a.93.93,0,0,0-.93.93v3.3A.93.93,0,0,0,1.63,7.1Z"/><path class="cls-1" d="M27.9,11.84a5.74,5.74,0,0,0-2.31-1.7,8.46,8.46,0,0,0-3.38-.66,8.24,8.24,0,0,0-6.34,2.86c-.35.38-.6.29-.6-.22V10.88a.92.92,0,0,0-.93-.92H11a.93.93,0,0,0-.93.92V27.13a.93.93,0,0,0,.93.93h3.72a.93.93,0,0,0,.93-.93V21.48a18.45,18.45,0,0,1,.42-4.84,4,4,0,0,1,1.58-2.1,4.47,4.47,0,0,1,2.6-.8,3.3,3.3,0,0,1,1.93.56,3.1,3.1,0,0,1,1.17,1.56,17,17,0,0,1,.35,4.41v6.86a.93.93,0,0,0,.93.93h3.72a.93.93,0,0,0,.93-.93v-9.2A17.68,17.68,0,0,0,29,14.18,6.29,6.29,0,0,0,27.9,11.84Z"/></svg>