<svg id="Layer_1" data-name="Layer 1" xmlns="http://www.w3.org/2000/svg" viewBox="0 0 116.4 64.66"><defs><style>.cls-1{fill:#22ad65;}</style></defs><title>mails</title><path class="cls-1" d="M22.63-13.94h3.72a.93.93,0,0,0,.93-.93V-31.12a.93.93,0,0,0-.93-.92H22.63a.93.93,0,0,0-.93.92v16.25A.93.93,0,0,0,22.63-13.94Z" transform="translate(30 40.06)"/><path class="cls-1" d="M22.63-34.9h3.72a.93.93,0,0,0,.93-.93v-3.3a.93.93,0,0,0-.93-.93H22.63a.93.93,0,0,0-.93.93v3.3A.93.93,0,0,0,22.63-34.9Z" transform="translate(30 40.06)"/><path class="cls-1" d="M48.9-30.16a5.74,5.74,0,0,0-2.31-1.7,8.46,8.46,0,0,0-3.38-.66,8.24,8.24,0,0,0-6.34,2.86c-.35.38-.6.29-.6-.22v-1.24a.92.92,0,0,0-.93-.92H32a.93.93,0,0,0-.93.92v16.25a.93.93,0,0,0,.93.93h3.72a.93.93,0,0,0,.93-.93v-5.65a18.45,18.45,0,0,1,.42-4.84,4,4,0,0,1,1.58-2.1,4.47,4.47,0,0,1,2.6-.8,3.3,3.3,0,0,1,1.93.56,3.1,3.1,0,0,1,1.17,1.56,17,17,0,0,1,.35,4.41v6.86a.93.93,0,0,0,.93.93h3.72a.93.93,0,0,0,.93-.93v-9.2A17.68,17.68,0,0,0,50-27.82,6.29,6.29,0,0,0,48.9-30.16Z" transform="translate(30 40.06)"/><rect class="cls-1" y="28.06" width="7" height="7"/><path class="cls-1" d="M86-24.34a1.37,1.37,0,0,0-.11-2L73.06-37.57a1.61,1.61,0,0,0-2.1,0L58.05-25.7a1.36,1.36,0,0,0-.06,2l.32.34a1.42,1.42,0,0,0,1.94.15l1-.87v12.66a1.41,1.41,0,0,0,1.41,1.4h5a1.41,1.41,0,0,0,1.41-1.4v-8.86h6.42v8.86a1.33,1.33,0,0,0,1.32,1.4h5.33a1.41,1.41,0,0,0,1.41-1.4V-23.94l.59.52c.33.29,1,.06,1.54-.52Z" transform="translate(30 40.06)"/><path class="cls-1" d="M23.36,20.23a.42.42,0,0,1-.29-.12l-5-4.7a.44.44,0,0,1,0-.62.43.43,0,0,1,.61,0l5,4.7a.42.42,0,0,1,0,.61A.43.43,0,0,1,23.36,20.23Z" transform="translate(30 40.06)"/><path class="cls-1" d="M6.63,20.23a.43.43,0,0,1-.31-.14.42.42,0,0,1,0-.61l5-4.7a.44.44,0,0,1,.62,0,.45.45,0,0,1,0,.62l-5,4.7A.42.42,0,0,1,6.63,20.23Z" transform="translate(30 40.06)"/><path class="cls-1" d="M26.33,24.6H3.67a2.18,2.18,0,0,1-2.18-2.18V7.58A2.18,2.18,0,0,1,3.67,5.4H26.33a2.18,2.18,0,0,1,2.18,2.18V22.42A2.18,2.18,0,0,1,26.33,24.6ZM3.67,6.27a1.31,1.31,0,0,0-1.3,1.31V22.42a1.31,1.31,0,0,0,1.3,1.31H26.33a1.31,1.31,0,0,0,1.3-1.31V7.58a1.31,1.31,0,0,0-1.3-1.31Z" transform="translate(30 40.06)"/><path class="cls-1" d="M15,17.19a2.41,2.41,0,0,1-1.6-.58L2.22,6.86a.45.45,0,0,1-.05-.62.44.44,0,0,1,.62,0L14,16A1.63,1.63,0,0,0,16,16L27.2,6.21a.44.44,0,0,1,.57.66L16.6,16.61A2.41,2.41,0,0,1,15,17.19Z" transform="translate(30 40.06)"/></svg>