<svg id="Layer_1" data-name="Layer 1" xmlns="http://www.w3.org/2000/svg" viewBox="0 0 30 30"><defs><style>.cls-1{fill:none;stroke:#22ad65;stroke-miterlimit:10;}</style></defs><title>mails-03</title><path class="cls-1" d="M23.36,20.23a.42.42,0,0,1-.29-.12l-5-4.7a.44.44,0,0,1,0-.62.43.43,0,0,1,.61,0l5,4.7a.42.42,0,0,1,0,.61A.43.43,0,0,1,23.36,20.23Z"/><path class="cls-1" d="M6.63,20.23a.43.43,0,0,1-.31-.14.42.42,0,0,1,0-.61l5-4.7a.44.44,0,0,1,.62,0,.45.45,0,0,1,0,.62l-5,4.7A.42.42,0,0,1,6.63,20.23Z"/><path class="cls-1" d="M26.33,24.6H3.67a2.18,2.18,0,0,1-2.18-2.18V7.58A2.18,2.18,0,0,1,3.67,5.4H26.33a2.18,2.18,0,0,1,2.18,2.18V22.42A2.18,2.18,0,0,1,26.33,24.6ZM3.67,6.27a1.31,1.31,0,0,0-1.3,1.31V22.42a1.31,1.31,0,0,0,1.3,1.31H26.33a1.31,1.31,0,0,0,1.3-1.31V7.58a1.31,1.31,0,0,0-1.3-1.31Z"/><path class="cls-1" d="M15,17.19a2.41,2.41,0,0,1-1.6-.58L2.22,6.86a.45.45,0,0,1-.05-.62.44.44,0,0,1,.62,0L14,16A1.63,1.63,0,0,0,16,16L27.2,6.21a.44.44,0,0,1,.57.66L16.6,16.61A2.41,2.41,0,0,1,15,17.19Z"/></svg>