<svg id="Capa_1" data-name="Capa 1" xmlns="http://www.w3.org/2000/svg" viewBox="0 0 494.03 494.03"><defs><style>.cls-1{fill:#22ad65;}.cls-2{fill:#292f33;}</style></defs><title>speak-green</title><path class="cls-1" d="M494,325.08a14.18,14.18,0,0,1-14.19,14.26l-71.11.19a14.23,14.23,0,0,1-.07-28.46l71.11-.19A14.23,14.23,0,0,1,494,325.08"/><path class="cls-1" d="M471.45,247a14.22,14.22,0,0,1-6.76,19l-64.23,30.51a14.23,14.23,0,0,1-12.18-25.73l64.22-30.5A14.25,14.25,0,0,1,471.45,247"/><path class="cls-1" d="M471.87,403.27a14.21,14.21,0,0,0-6.82-18.91l-64.4-30.18a14.2,14.2,0,1,0-12.06,25.72L453,410.1a14.2,14.2,0,0,0,18.91-6.83"/><path class="cls-2" d="M382.27,207.33c-20.19-6-38.3-22-44.6-32-10.81-17.18,2.22-21.63-2.19-69.53-4-43.85-64.41-91-137.81-95.8-33.35-2.18-68.06,4.63-103.61,24.08C2.75,84-33.44,189.55,37.08,291.48,100.66,383.36,41,424.87,41,424.87s2.36,19.35,41.44,45.34,87.06,8.37,87.06,8.37,15.81-56.24,67.52-51.06C274.11,433,326.15,425.7,339.31,413c12.31-11.9-2.15-26.82,7.66-60.07-33.63-3.29-52.11-19.33-53.88-41.93,37.33,3.63,52.72-8.22,63.38-21.26-.28-7.68-1.06-24-1.79-34.9,33-9.56,45.66-42.12,27.59-47.46"/></svg>