<?xml version="1.0" encoding="utf-8"?>
<!-- Generator: Adobe Illustrator 22.0.1, SVG Export Plug-In . SVG Version: 6.00 Build 0)  -->
<svg version="1.1" id="Capa_1" xmlns="http://www.w3.org/2000/svg" xmlns:xlink="http://www.w3.org/1999/xlink" x="0px" y="0px"
	 viewBox="0 0 494 494" style="enable-background:new 0 0 494 494;" xml:space="preserve">
<style type="text/css">
	.st0{fill:#22AD65;}
	.st1{fill:#292F33;}
</style>
<g>
	<path class="st0" d="M494,325.1c0,7.9-6.3,14.3-14.2,14.3l-71.1,0.2c-7.9,0-14.2-6.4-14.2-14.2c0-7.9,6.3-14.3,14.2-14.3l71.1-0.2
		C487.6,310.9,494,317.2,494,325.1"/>
	<path class="st0" d="M471.4,247c3.4,7.1,0.4,15.6-6.8,19l-64.2,30.5c-7.1,3.4-15.6,0.3-18.9-6.8c-3.4-7.1-0.4-15.6,6.7-19
		l64.2-30.5C459.6,236.9,468.1,239.9,471.4,247"/>
	<path class="st0" d="M471.9,403.3c3.3-7.1,0.3-15.6-6.8-18.9l-64.4-30.2c-7.1-3.4-15.6-0.3-18.9,6.8c-3.3,7.1-0.3,15.6,6.9,18.9
		l64.4,30.2C460.1,413.4,468.6,410.4,471.9,403.3"/>
</g>
<path class="st1" d="M382.3,207.3c-20.2-6-38.3-22-44.6-32c-10.8-17.2,2.2-21.6-2.2-69.5c-4-43.8-64.4-91-137.8-95.8
	c-33.4-2.2-68.1,4.6-103.6,24.1C2.8,84-33.4,189.6,37.1,291.5c63.6,91.9,3.9,133.4,3.9,133.4s2.4,19.3,41.4,45.3
	c39.1,26,87.1,8.4,87.1,8.4s15.8-56.2,67.5-51.1c37.1,5.5,89.1-1.8,102.3-14.6c12.3-11.9-2.1-26.8,7.7-60.1
	c-33.6-3.3-52.1-19.3-53.9-41.9c37.3,3.6,52.7-8.2,63.4-21.3c-0.3-7.7-1.1-24-1.8-34.9C387.7,245.2,400.3,212.7,382.3,207.3"/>
<rect x="-75" y="-124" class="st0" width="120" height="86"/>
</svg>
