<svg xmlns="http://www.w3.org/2000/svg" viewBox="0 0 152.3 214.7"><defs><style>.cls-1{fill:#b1bfcb;}.cls-2{fill:#394cd2;}.cls-3{fill:#dbddfc;}.cls-4{fill:#8990ee;}.cls-5{fill:#babef8;}.cls-6{fill:#4e5de2;}.cls-7{opacity:0.84;}.cls-8{fill:#f9b781;}.cls-9{fill:#f9fafc;}.cls-10{fill:#e7ecee;}.cls-11{opacity:0.7;}.cls-12{fill:#67ade0;}.cls-13{fill:#fdbf50;}.cls-14{fill:#61c39a;}.cls-15{fill:#77787c;}.cls-16{fill:#fff;}.cls-17{fill:#00070f;}.cls-18{fill:#f15c31;}.cls-19{fill:#8e989d;}.cls-20{fill:#00080c;}.cls-21{fill:#fffac2;}.cls-22{fill:#f8c0d9;}.cls-23{fill:#ed2d4e;}</style></defs><title>Ella 3.0</title><g id="Layer_2" data-name="Layer 2"><g id="OBJECTS"><path class="cls-1" d="M8.11,160.18c-1.79-1-4.75.07-6,1.66s-1.46,2.48-.13,4,6,2.95,6.67,2.59a13.34,13.34,0,0,0,0-8.38"/><path class="cls-1" d="M152.24,170.45c-.44-2.09-2.07-3-4-3.91-1.16-.52-4.85-2-5.3-1.34-1.35,2.14-3.83,5.36-1.61,6.42C144.28,173,153.14,174.79,152.24,170.45Z"/><path class="cls-2" d="M61.48,97.12a2.17,2.17,0,0,0,1.16.74A1.61,1.61,0,0,0,64.38,97a2.43,2.43,0,0,0-.15-1.69q-1.4-4.23-2.8-8.48A4,4,0,0,0,60,84.52c-1.22-.83-3.09-.79-4.75-.7a3.91,3.91,0,0,0,.64,3.32c.64,1,1.52,2,2.18,3A8.73,8.73,0,0,1,59.43,94c.06.55,0,1,.39,1.45S60.94,96.58,61.48,97.12Z"/><path class="cls-3" d="M61.23,93.72c0,3.32-1.75,8.12-.06,11,1.35,2.28,5.19,2.46,7.76,3.09a29.83,29.83,0,0,0,7.9.48,28.15,28.15,0,0,0,8.24-1A9.68,9.68,0,0,0,91.2,102a14.38,14.38,0,0,0,.64-5.43c-.15-13.5-1-27-1.18-40.5-2.38,3.43-4,6.87-6.4,10.3-2.67,3.85-5.39,7.76-9.05,10.68-4.11,3.28-9.14,5.1-14.14,6.54-3.44,1-2.62,1.21-1.16,3.78A13,13,0,0,1,61.23,93.72Z"/><path class="cls-2" d="M46.8,18.68c.53-.74,1.11-1.66.76-2.5s-1.54-1.11-2.51-1a11.23,11.23,0,0,0-7.53,4.23,21.9,21.9,0,0,0-3.9,7.9A42.55,42.55,0,0,0,31.86,39c0,1.55-.16,10.5,1.92,10.58,1.28,0,2.25-7.86,2.65-9.28A68.44,68.44,0,0,1,46.8,18.68Z"/><path class="cls-4" d="M60.76,93.8c7-.19,14.09-4.37,18.44-9.9s7.32-14.41,9.21-21.18c-2,7.11-9.81,15.47-16.17,18.56-3.69,1.8-8.48,2.08-12.45,2.82-2.83.52-1.91.45-.49,3A14.12,14.12,0,0,1,60.76,93.8Z"/><path class="cls-5" d="M8.6,160.91v39c.94,4.46,4.71,8,8.83,9.91s8.71,2.56,13.24,3.05a317.79,317.79,0,0,0,83.74-2.07c1-3.6-1.47-7.4-4.71-9.24s-7.09-2.15-10.8-2.44L42.08,194.8c-3.59-.28-7.89-1.06-9.19-4.41s1.17-6.57,2.29-9.84a15.43,15.43,0,0,0-2.78-14.31,20.35,20.35,0,0,0-13-7.12C15.48,158.57,12.53,160.91,8.6,160.91Z"/><path class="cls-4" d="M23.26,166.25c4.61,2.81,7.3,8.05,8.27,13.35s.43,10.76-.12,16.13c9.9,0,19.84.06,29.64,1.46s19.52,4.22,27.91,9.46c2.76,1.72,5.39,3.71,8.44,4.83,4,1.46,8.39,1.31,12.65,1.13,5.33-.22,10.77-.46,15.75-2.35s9.54-5.76,10.82-10.94c-7.84,3.35-16.54,4.28-25.06,3.9s-16.91-2-25.28-3.68c-14.34-2.83-28.87-6.57-43-8.47-2.41-.33-4.94-1-6.58-2.82-2.77-3-.91-8.3-1-12.4-.12-9,1.69-16.81-17.73-17.14-3-.05-9.39-1.61-9.39,1.37,0,2.54.08,1.58,0,8.38,1.81-1.78,1.48-2.61,4.42-3.53A12.79,12.79,0,0,1,23.26,166.25Z"/><ellipse class="cls-3" cx="62.85" cy="47.72" rx="28.58" ry="37.19"/><path class="cls-2" d="M67.47,39.48a.49.49,0,0,1-.41-.21c-5-6.9-10.88-3-11.13-2.8a.5.5,0,1,1-.57-.82c.07,0,7-4.65,12.51,3a.5.5,0,0,1-.11.69A.46.46,0,0,1,67.47,39.48Z"/><path class="cls-2" d="M37.6,43.55a.39.39,0,0,1-.18,0,.49.49,0,0,1-.29-.64c2.67-7,8.71-5.4,8.77-5.38a.5.5,0,0,1,.35.61.52.52,0,0,1-.62.35c-.21-.06-5.23-1.32-7.56,4.78A.51.51,0,0,1,37.6,43.55Z"/><ellipse class="cls-2" cx="63.6" cy="45.41" rx="2.83" ry="3.17"/><path class="cls-2" d="M45.61,50.65a2.93,2.93,0,1,1-2.92-2.93A2.92,2.92,0,0,1,45.61,50.65Z"/><path class="cls-2" d="M50.6,61.2a4.26,4.26,0,0,1-3.31-1.49,3.33,3.33,0,0,1-.38-3.66,2.83,2.83,0,0,1,2.8-1.39l.14-4.27,1,0-.19,5.68L50,55.77a1.78,1.78,0,0,0-2.19.77,2.36,2.36,0,0,0,.29,2.54A3.24,3.24,0,0,0,50.6,60.2Z"/><path class="cls-2" d="M55.75,70.38c-.28,0-.57,0-.85,0a.5.5,0,0,1,.07-1,13.5,13.5,0,0,0,12.84-7.74.5.5,0,0,1,.91.41A14.56,14.56,0,0,1,55.75,70.38Z"/><path class="cls-6" d="M39,78.71c-2.58-7.58-6.91-14.66-8-22.59-1-6.84.53-13.93-1-20.66-.9-3.9-2.82-7.7-2.47-11.69.4-4.65,3.78-8.48,7.36-11.48C43.9,4.7,55.5,0,67.3,0S91,5,98.7,13.91C109.13,26,110.8,43.14,116.7,58c3.15,7.94,7.67,15.85,7,24.37-.62,8-.49,3.63-5.37,10-1.8,2.35-9.49-.64-11.87,1.12s-10.39.58-15.93,0c.3-7.19.3-7.19.3-15.22.31-14.25.65-16.15-.08-30.39-.14-2.84-.38-5.87-2.13-8.11S83.69,36.44,82,34s-1.56-5.81-3.15-8.33c-2-3.18-6.19-4.17-10-4.3s-7.68.31-11.17-1.11c-4.25-1.74-7.49-6.12-13.51-2.53a13.85,13.85,0,0,0-4.87,5.15,44.37,44.37,0,0,0-4.27,32.55A47.54,47.54,0,0,0,55.68,83.62a13.73,13.73,0,0,1,5.09,5.77c2,4.29,1.73,5.74-2.8,6.65-5.62,1.12-8,.51-12.57.63a2.33,2.33,0,0,0-1.95.24c-.68.54-2.29.18-3.26-.13a.9.9,0,0,1-.63-1c.2-1.18.6-3.35.72-4,.4-2.05,0-2.26.44-5.49C41.33,81.76,40.48,83,39,78.71Z"/><path class="cls-3" d="M88.43,39.91s12.67-12,11.33,7.81c0,0,0,6.86-3.91,7.52a50.63,50.63,0,0,1-5.12.72Z"/><path class="cls-2" d="M95.59,50a.5.5,0,0,1-.47-.33,13.68,13.68,0,0,0-3.85-5.9l-.42-.35,3.56-3.55a.49.49,0,0,1,.7.7l-2.79,2.79a15.08,15.08,0,0,1,3.74,6,.5.5,0,0,1-.31.64A.45.45,0,0,1,95.59,50Z"/><path class="cls-2" d="M104.26,93.8l-.18-1a8.34,8.34,0,0,0,5.42-4.14,18.79,18.79,0,0,0,2.09-6.91,48.32,48.32,0,0,0-5.46-29.83l.87-.49a49.33,49.33,0,0,1,5.58,30.46,19.9,19.9,0,0,1-2.22,7.28A9.24,9.24,0,0,1,104.26,93.8Z"/><path class="cls-2" d="M104.61,93.43l-1-.27a66.34,66.34,0,0,0,1.66-27.22l1-.15A67.34,67.34,0,0,1,104.61,93.43Z"/><path class="cls-2" d="M50,16.36a.59.59,0,0,1-.23-.05.5.5,0,0,1-.21-.68,26.8,26.8,0,0,1,15.87-13,.5.5,0,0,1,.28,1A25.8,25.8,0,0,0,50.45,16.09.48.48,0,0,1,50,16.36Z"/><g class="cls-7"><path class="cls-8" d="M94.56,68.64a8.29,8.29,0,1,1,8.29-8.29A8.3,8.3,0,0,1,94.56,68.64Zm0-15.58a7.29,7.29,0,1,0,7.29,7.29A7.3,7.3,0,0,0,94.56,53.06Z"/></g><path class="cls-3" d="M94.08,54a1.16,1.16,0,0,0,.25.66,1.08,1.08,0,0,0,1,.11,8.09,8.09,0,0,0,2-.6,3,3,0,0,0,1.46-1.44,1.85,1.85,0,0,0-.29-2,2.93,2.93,0,0,0-2.22-.56c-.6,0-2.49-.28-2.66.44a4.63,4.63,0,0,0,.19,1.52Z"/><path class="cls-6" d="M41,34.16s2.83-4.89,1.85-7.32q-.41,3.73-.79,7.47l9-1.53c1.62-.28,3.36-.61,4.51-1.78,1.82-1.85,1.42-4.86.9-7.39.07,2.53.15,5.06.22,7.59l23.74-5.74C79.34,23,76.68,21.55,74,21s-5.39-.49-8.08-.84c-4.27-.57-8.3-2.26-12.49-3.25s-8.85-1.22-12.56,1a14.47,14.47,0,0,0-5.66,6.93,30.12,30.12,0,0,0-1.44,4.46c-.21.88-2,5.48-1,5.48C34,34.73,39.54,35,41,34.16Z"/><path class="cls-9" d="M8.6,168.46s-20.5-7.22,9.5-9.55l11.33,2.33s.67,3.67,6,7.67v16.33l77.33-1.33V172.08s7.67-9.5,25-7.84,14.34,7.84,14.34,7.84-2.34-39.84-7-49.5-8.67-16.67-19.67-19-33.33-3.34-33.33-3.34a21.89,21.89,0,0,1-18.34,7.13C62.1,106.24,60.1,98.91,60.1,98.91H40.76s-14-3.67-21.66,12.67S1,153.58,1,153.58-4.11,168.51,8.6,168.46Z"/><path class="cls-5" d="M30.85,192.66s3.25-16,32-17.5,49.91,3.5,49.91,3.5v-6.58s6.84-8.39,20.59-8l9.78,1s2.22,28.4-10.78,44.15c0,0-9.77,4.5-34.5-3.75s-21.64-8-21.64-8S49.85,191.16,30.85,192.66Z"/><path class="cls-4" d="M143.17,172.35c.23-2.56.32-7.26,0-7.34-1.1-.21-4.15-.68-5.37-.77-4.29-.32-7.95-.59-12.19.23-2.53.5-8.46,2.63-9.94,5-2.33,3.8,4.85-.19,6.82-.58A29.61,29.61,0,0,1,143.17,172.35Z"/><path class="cls-10" d="M25.2,144.76a21.2,21.2,0,0,1,9.9-11,9.29,9.29,0,0,1-.69,6.33c-.87,2-2.1,3.8-3.09,5.73-2.53,5-2.86,10.09-2.36,15.53C22.77,157.76,22.69,151.2,25.2,144.76Z"/><path class="cls-10" d="M108.69,164.32a17,17,0,0,0,.12,4.94,5.72,5.72,0,0,0,2.74,3.93,90.75,90.75,0,0,1,.5-30.36c.47-2.49,1.35-6.43-.64-8.44-2.2,2.33-1.34,11.16-1.59,14.48Q109.27,156.6,108.69,164.32Z"/><g class="cls-11"><path d="M63.1,138.22a8.23,8.23,0,0,0,3.45.35c-.33,0-.73-.12-.85-.44-.07-.17,0-.37-.14-.52a.67.67,0,0,0-.45-.22c-.47-.1-.94-.2-1.42-.26s-1.11-.22-1.3.19S62.74,138.11,63.1,138.22Z"/><path class="cls-12" d="M62.41,136.47a2.75,2.75,0,0,0,2-1.27,16.45,16.45,0,0,0,2.26-3.7,2.23,2.23,0,0,0,.23-1.32c-.21-.43-.91-.12-1.38,0a5.88,5.88,0,0,0-3.87,2.6,3.4,3.4,0,0,0-.73,2.08A1.71,1.71,0,0,0,62.41,136.47Z"/><circle class="cls-13" cx="74.45" cy="144.68" r="14.42"/><path class="cls-14" d="M75.76,124.47a20.55,20.55,0,1,0,19.11,22.05A20.63,20.63,0,0,0,75.76,124.47Zm-2.27,34.3a13.94,13.94,0,1,1,15.06-12.85A14,14,0,0,1,73.49,158.77Z"/><path class="cls-15" d="M84.51,147.21a1,1,0,0,1,1.44-.68l1.17.5s4-3.54,5.6-3.05l-2.44,4.68s1.28-1,1.74-.93-.91,1.69-.91,1.69,1.66-1.13,1.82-.79-1.18,1.44-1.18,1.44,2-.82,2.09-.58-.86.95-.86.95,3.89-2.39,6.2-1.76c0,0,.12.25-.37.63s-5.06,3.83-5.39,5.15-.6,1.81.26,2.06a5.34,5.34,0,0,0,3-.14c.63-.33,1.5-.21.57.48a10.44,10.44,0,0,1-3.42,1.67,2,2,0,0,1-.87-.07l3,.88a17.68,17.68,0,0,1-3.26.82c-.93,0,2.43.88,2.43.88s-.65.69-3.81.13a8.13,8.13,0,0,1-4.88.79,10.07,10.07,0,0,1-4.56-2.85"/><path d="M87.23,162.2a6.89,6.89,0,0,1-.76-.1,10.17,10.17,0,0,1-4.63-2.89.14.14,0,0,1,.21-.19,9.93,9.93,0,0,0,4.48,2.8,8.06,8.06,0,0,0,4.79-.77.13.13,0,0,1,.09,0,7.05,7.05,0,0,0,3.4.05c-2.39-.62-2.37-.77-2.35-.9s.2-.16.29-.16a14.55,14.55,0,0,0,2.8-.67l-2.48-.72-.15,0a.14.14,0,0,1-.07-.18.13.13,0,0,1,.16-.08l.13,0a2.55,2.55,0,0,0,.7,0,10.25,10.25,0,0,0,3.35-1.64c.35-.26.35-.37.35-.37a1,1,0,0,0-.77.12,5.46,5.46,0,0,1-3.13.15c-.88-.25-.74-.78-.48-1.75,0-.15.08-.3.12-.47.27-1.08,3.06-3.4,5.35-5.16l.1-.07c.24-.2.31-.33.32-.41-2.24-.52-6,1.75-6,1.77a.14.14,0,0,1-.19,0,.14.14,0,0,1,0-.19,3.87,3.87,0,0,0,.79-.75,10.93,10.93,0,0,0-1.87.62.13.13,0,0,1-.17-.06.12.12,0,0,1,0-.17,4,4,0,0,0,1.13-1.26,4.69,4.69,0,0,0-1.61.83.15.15,0,0,1-.19-.21,5.87,5.87,0,0,0,1-1.46,5.23,5.23,0,0,0-1.61.9.14.14,0,0,1-.21-.17l2.36-4.52c-.64-.07-1.71.39-3.11,1.36a24.85,24.85,0,0,0-2.2,1.7.16.16,0,0,1-.15,0l-1.17-.5a.93.93,0,0,0-.79,0,1.06,1.06,0,0,0-.46.63.13.13,0,0,1-.16.1.14.14,0,0,1-.11-.16,1.3,1.3,0,0,1,.61-.81,1.15,1.15,0,0,1,1,0l1.09.47c.55-.47,4.13-3.5,5.67-3a.14.14,0,0,1,.09.08.14.14,0,0,1,0,.11l-2.18,4.18a3.19,3.19,0,0,1,1.36-.63.25.25,0,0,1,.21.14c.09.21-.2.69-.53,1.15a2.3,2.3,0,0,1,1.18-.44.25.25,0,0,1,.16.13c.13.26-.23.7-.63,1.09a3.36,3.36,0,0,1,1.45-.33.23.23,0,0,1,.1.12.43.43,0,0,1-.11.34c1.32-.67,3.7-1.69,5.36-1.24a.16.16,0,0,1,.09.07s.15.36-.41.8l-.1.07c-3.14,2.41-5.06,4.24-5.25,5,0,.17-.08.32-.12.47-.28,1-.31,1.24.29,1.42a5.17,5.17,0,0,0,2.92-.14c.42-.21,1-.27,1.13,0s0,.45-.42.75a12,12,0,0,1-3.28,1.65l2,.58a.12.12,0,0,1,.1.13.12.12,0,0,1-.09.13,20.7,20.7,0,0,1-3,.8c.48.17,1.36.42,2.19.63a.19.19,0,0,1,.1.1.12.12,0,0,1,0,.13c-.07.08-.79.73-3.89.18A8.52,8.52,0,0,1,87.23,162.2Zm6.47-12.68Z"/><path class="cls-12" d="M62.29,129.59s-3.06-.92-2.1-4.81a2.78,2.78,0,0,1,1-1.52,5,5,0,0,1,4.08-1.09,3.91,3.91,0,0,1,3.4,2.85c.46,1.89-1.45,4.48-3.91,4.52"/><path d="M62.26,129.68s-3.13-1-2.16-4.92a2.82,2.82,0,0,1,1-1.57,5.13,5.13,0,0,1,4.16-1.11c1.92.38,3.09,1.36,3.47,2.92a3.58,3.58,0,0,1-.79,2.92,4.28,4.28,0,0,1-3.21,1.72v-.19a4,4,0,0,0,3.06-1.64,3.39,3.39,0,0,0,.76-2.77,3.78,3.78,0,0,0-3.33-2.78,4.92,4.92,0,0,0-4,1.07,2.67,2.67,0,0,0-1,1.48,3.94,3.94,0,0,0,.67,3.77,3.32,3.32,0,0,0,1.37.92Z"/><path class="cls-12" d="M63.22,136.4a3.16,3.16,0,0,0,1.37-1.27,34.64,34.64,0,0,0,2.18-3.33c.26-.48.47-1.13.07-1.5a1.15,1.15,0,0,0-.89-.2,5.46,5.46,0,0,0-3.63,1.9c-.86,1-1.63,2.23-1,3.56A1.58,1.58,0,0,0,63.22,136.4Z"/><path class="cls-16" d="M74.91,136.89a1,1,0,0,0,.74.18.94.94,0,0,0,.72-.74,1.37,1.37,0,0,0-.24-1,5.39,5.39,0,0,0-1.2.6c-.18.11-.48.2-.47.45S74.77,136.79,74.91,136.89Z"/><path d="M75.42,137.18a1.2,1.2,0,0,1-.56-.21h0c-.11-.08-.47-.35-.49-.62s.22-.38.4-.47l.11-.06a6,6,0,0,1,1.22-.61l.07,0,0,.06a1.48,1.48,0,0,1,.25,1.1,1.05,1.05,0,0,1-.8.81A.9.9,0,0,1,75.42,137.18Zm-.46-.36a.92.92,0,0,0,.67.16.87.87,0,0,0,.65-.67,1.24,1.24,0,0,0-.19-.9A5.3,5.3,0,0,0,75,136l-.13.06c-.18.1-.3.17-.3.3s.22.34.41.48Z"/><path class="cls-16" d="M76.94,136a.85.85,0,0,0,.87-.62,1.64,1.64,0,0,0,0-.76.63.63,0,0,0-.07-.22.21.21,0,0,0-.33,0c-.28.18-1.11.55-1.18.88S76.63,136,76.94,136Z"/><path d="M76.93,136.11h0a1.12,1.12,0,0,1-.72-.43.55.55,0,0,1-.12-.45c.06-.29.55-.56.94-.78a3.08,3.08,0,0,0,.28-.16.38.38,0,0,1,.17-.07.3.3,0,0,1,.29.14.61.61,0,0,1,.08.25,1.66,1.66,0,0,1,.05.8A1,1,0,0,1,76.93,136.11Zm.59-1.71h0a.28.28,0,0,0-.09,0l-.29.17c-.3.16-.8.44-.85.65a.36.36,0,0,0,.09.3.93.93,0,0,0,.59.35.76.76,0,0,0,.77-.55,1.59,1.59,0,0,0,0-.72.55.55,0,0,0-.06-.18A.12.12,0,0,0,77.52,134.4Z"/><path class="cls-12" d="M60.39,134.45a3.54,3.54,0,0,0-.23,3.05,1.86,1.86,0,0,1-1.81.14s0,1,2.23,1.14c0,0-.23,1.74,2.9,2s3.59-1.39,3.59-1.39l-.79-.06a2,2,0,0,0,1.72-.66c.71-.83-2.12-.76-2.12-.76l-.65-.05"/><path d="M63.6,141h-.13a3.69,3.69,0,0,1-2.66-1.09,1.55,1.55,0,0,1-.37-.94h0c-2.22-.17-2.21-1.23-2.21-1.28a.12.12,0,0,1,.07-.11.12.12,0,0,1,.13,0,1.67,1.67,0,0,0,1.58-.07,3.62,3.62,0,0,1,.29-3.06.13.13,0,0,1,.19,0,.14.14,0,0,1,0,.19,3.43,3.43,0,0,0-.22,2.91.13.13,0,0,1,0,.17,2,2,0,0,1-1.67.27c.16.27.63.68,2,.76a.12.12,0,0,1,.1.05.11.11,0,0,1,0,.11,1.34,1.34,0,0,0,.32.89,3.6,3.6,0,0,0,2.47,1c2.4.21,3.15-.75,3.36-1.14l-.39,0a.62.62,0,0,1-.21,0,.14.14,0,1,1,0-.27h.2a1.77,1.77,0,0,0,1.4-.62c0-.06.1-.13.08-.19-.12-.24-1.17-.37-2.09-.34h0l-.65,0a.14.14,0,0,1-.12-.15.13.13,0,0,1,.14-.13l.64,0c.07,0,.53,0,1,0,1,.1,1.23.32,1.31.47a.43.43,0,0,1-.12.49,2,2,0,0,1-.9.61v.05C67.18,139.51,66.69,141.19,63.6,141Z"/><path class="cls-12" d="M67,130l.85,1a6.09,6.09,0,0,0,5.74,2.61c3.7-.56,4.43-1,4.62-.44s-2.65,3.13-5.1,3.74a17.18,17.18,0,0,1-8,.5c-2.75-.67-2.6-.2-2.6-.2"/><path d="M66.78,137.75a10.59,10.59,0,0,1-1.75-.27c-1.94-.46-2.36-.34-2.43-.31a.14.14,0,0,1-.27,0,.22.22,0,0,1,.05-.21c.08-.09.33-.35,2.72.22a16.79,16.79,0,0,0,8-.5A10,10,0,0,0,78,133.37c.09-.16.08-.22.08-.22-.09-.23-.4-.18-1.7.06-.65.12-1.55.29-2.77.47A6.26,6.26,0,0,1,67.73,131l-.85-1a.14.14,0,0,1,0-.2.14.14,0,0,1,.19,0l.86,1h0a6,6,0,0,0,5.6,2.55c1.21-.18,2.11-.35,2.76-.47,1.41-.26,1.84-.34,2,.12a.51.51,0,0,1-.08.41,7.4,7.4,0,0,1-1.92,1.89,9.79,9.79,0,0,1-3.2,1.62A20.13,20.13,0,0,1,66.78,137.75Zm-4.19-.64Z"/><path class="cls-12" d="M60.1,135.08a2.84,2.84,0,0,1-2.24,1.59c-1.53.07-3.29.08-4.37-1s-2.29-2.22-1.51-5.26,4.85-2.84,6-2.33a4.82,4.82,0,0,1,3,4.49"/><path d="M56.09,136.76a4.12,4.12,0,0,1-2.67-1l0,0c-1.08-1.05-2.3-2.25-1.51-5.33a3.27,3.27,0,0,1,1.8-2.18A6.07,6.07,0,0,1,58,128a4.9,4.9,0,0,1,3.1,4.59H61a4.83,4.83,0,0,0-3-4.41,5.91,5.91,0,0,0-4.18.21,3.07,3.07,0,0,0-1.71,2.06c-.77,3,.37,4.08,1.46,5.15l0,0c1,1,2.7,1,4.31,1A2.73,2.73,0,0,0,60,135l.17.08a2.94,2.94,0,0,1-2.31,1.65A15.11,15.11,0,0,1,56.09,136.76Z"/><path class="cls-17" d="M63.43,137a2.23,2.23,0,0,0-.63,0,.65.65,0,0,0-.32,1.2,2,2,0,0,0,.91.36,12.91,12.91,0,0,0,2.84.22c.09,0,.19,0,.22-.11s-.06-.15-.14-.17a2.09,2.09,0,0,0-.25,0,.46.46,0,0,1-.45-.35c-.07-.27.24-.38.23-.54s-.3-.24-.46-.27C64.74,137.14,64.08,137.07,63.43,137Z"/><path class="cls-18" d="M64,137.82a1,1,0,0,1,.79.58,9.73,9.73,0,0,1-1.86-.21.54.54,0,0,1-.24-.09.23.23,0,0,1-.09-.22c0-.12.21-.15.34-.13a1.65,1.65,0,0,1,.71.29A.3.3,0,0,1,64,137.82Z"/><ellipse class="cls-16" cx="68.71" cy="132.64" rx="1.87" ry="1.77" transform="translate(-68.72 191.19) rotate(-85.69)"/><path d="M68.56,134.59a2,2,0,0,1,.29-3.9,2,2,0,0,1-.29,3.9Zm.28-3.72a1.78,1.78,0,1,0,1.54,1.89A1.74,1.74,0,0,0,68.84,130.87Z"/><path class="cls-19" d="M68.74,136s-1.29-1.39,1-2.66a1.9,1.9,0,0,1,2.3.18c1,1-1,2.21-1,2.21S69.56,136.73,68.74,136Z"/><path d="M69.38,136.34a1.17,1.17,0,0,1-.71-.3h0a1.57,1.57,0,0,1-.37-1.23,2.4,2.4,0,0,1,1.38-1.57,2,2,0,0,1,2.42.19.93.93,0,0,1,.29.78c-.11.83-1.31,1.55-1.36,1.58a3.58,3.58,0,0,1-.83.43A2.09,2.09,0,0,1,69.38,136.34Zm-.58-.43c.76.69,2.11-.27,2.13-.28s1.18-.72,1.27-1.45a.73.73,0,0,0-.24-.63,1.53,1.53,0,0,0-1.43-.44,2.66,2.66,0,0,0-.76.28,2.24,2.24,0,0,0-1.29,1.44A1.45,1.45,0,0,0,68.8,135.91Z"/><path class="cls-12" d="M61.1,131.82a16.12,16.12,0,0,1,2.47-3.89,15.53,15.53,0,0,1,3.29-2.4s-3.15,3.06-3.19,4.17c0,0,2.79-2.48,4.9-1.95s-2.22.25-3.15,2.08a4,4,0,0,1,4.67-1s-4.44,1.1-4.54,2.11"/><path d="M61.09,131.91h0a.09.09,0,0,1,0-.12,16.35,16.35,0,0,1,2.49-3.92,15.64,15.64,0,0,1,3.31-2.41.08.08,0,0,1,.11,0,.08.08,0,0,1,0,.12s-.79.77-1.57,1.66a7.72,7.72,0,0,0-1.54,2.2,11.39,11.39,0,0,1,1.48-1,4.6,4.6,0,0,1,3.31-.78c.49.12.64.2.64.32s-.23.21-.78.34l-.29.07a4.17,4.17,0,0,1,2,.37.09.09,0,0,1,.06.09.1.1,0,0,1-.07.08c-1.22.3-4.39,1.25-4.47,2a.1.1,0,0,1-.1.08h0a.1.1,0,0,1-.09-.1c.1-.93,3.3-1.85,4.34-2.12a3.85,3.85,0,0,0-4.3,1.07.09.09,0,0,1-.12,0,.08.08,0,0,1,0-.11c.54-1.06,2.13-1.43,3.08-1.65A5.61,5.61,0,0,0,69,128a2.64,2.64,0,0,0-.46-.14,4.66,4.66,0,0,0-3.17.76,11.53,11.53,0,0,0-1.65,1.16s-.06,0-.1,0a.11.11,0,0,1-.05-.09c0-.87,1.83-2.81,2.72-3.73a14.69,14.69,0,0,0-2.66,2,15.66,15.66,0,0,0-2.45,3.87A.12.12,0,0,1,61.09,131.91Z"/><ellipse class="cls-16" cx="65.74" cy="134.41" rx="1.87" ry="1.98" transform="translate(-73.23 189.87) rotate(-85.69)"/><path d="M65.59,136.36a2,2,0,1,1,2.21-1.79A2,2,0,0,1,65.59,136.36Zm.28-3.72a1.78,1.78,0,1,0,1.75,1.91A1.83,1.83,0,0,0,65.87,132.64Z"/><circle class="cls-20" cx="65.26" cy="134.82" r="0.37"/><circle class="cls-20" cx="68.39" cy="132.99" r="0.37"/><path class="cls-12" d="M60,135l.76,1,1.91-2.92a3.4,3.4,0,0,1,.61-.75c.82-.66,2.07-.35,3-.82a.94.94,0,0,0,.54-.55.48.48,0,0,0-.34-.61c-.33,0-.53.33-.77.56a1.66,1.66,0,0,1-1.47.27,11.6,11.6,0,0,0-1.52-.37c-1-.07-1.15.28-1.46,1C60.9,132.82,60.44,134,60,135Z"/><path class="cls-16" d="M84.53,158.86c0,.19.1.42.29.49a.55.55,0,0,0,.54-.21,3,3,0,0,0,.8-1.33s-1.7-.22-1.86-.21A6.19,6.19,0,0,0,84.53,158.86Z"/><path d="M84.9,159.46l-.11,0a.66.66,0,0,1-.35-.56h0c0-.12,0-.23-.08-.36a3.28,3.28,0,0,1-.15-.92v-.09h.08a7.16,7.16,0,0,1,.89.1c.38,0,.89.12,1,.11a.07.07,0,0,0-.07.06l.17.05a3.07,3.07,0,0,1-.81,1.38A.74.74,0,0,1,84.9,159.46Zm-.28-.62c0,.18.09.37.23.42s.35-.09.45-.18A3.08,3.08,0,0,0,86,157.9h0l-.87-.11-.77-.09a4.46,4.46,0,0,0,.15.78c0,.12,0,.24.08.36Z"/><path class="cls-16" d="M79,155.29c0,.15.11.32.25.38a.52.52,0,0,0,.52-.15,3.8,3.8,0,0,0,.82-.83l-1.27-.42c-.31-.1-.44-.25-.44.18A4,4,0,0,0,79,155.29Z"/><path d="M79.38,155.79l-.14,0a.59.59,0,0,1-.29-.43h0a3.27,3.27,0,0,1-.13-.87c0-.17,0-.29.1-.35s.19,0,.31,0l.15.05,1.39.47-.08.1a3.93,3.93,0,0,1-.83.85A.72.72,0,0,1,79.38,155.79Zm-.26-.52c0,.18.11.28.2.32s.25,0,.43-.14a3.72,3.72,0,0,0,.72-.71l-1.15-.38-.16-.06-.13,0a.43.43,0,0,0,0,.19,3.3,3.3,0,0,0,.11.82Z"/><path class="cls-18" d="M81.44,154.72a2.73,2.73,0,0,0-1.82,1.84,2.24,2.24,0,0,0-.07,1.63,1.6,1.6,0,0,0,1.15.85,2.58,2.58,0,0,0,1.71-.34,9.4,9.4,0,0,0,1.6-1.22"/><path d="M80.92,159.21l-.25,0a1.8,1.8,0,0,1-1.25-.93,2.41,2.41,0,0,1,.07-1.73,2.91,2.91,0,0,1,1.92-1.94l.06.27a2.64,2.64,0,0,0-1.72,1.75,2.15,2.15,0,0,0-.08,1.53,1.48,1.48,0,0,0,1.06.77,2.36,2.36,0,0,0,1.61-.32,10.06,10.06,0,0,0,1.58-1.2l.18.21a10.48,10.48,0,0,1-1.63,1.24A2.89,2.89,0,0,1,80.92,159.21Z"/><path d="M81.06,157.4h0a.13.13,0,0,1-.11-.16A1.54,1.54,0,0,1,82.27,156a.15.15,0,0,1,.15.13.14.14,0,0,1-.12.15,1.28,1.28,0,0,0-1.09,1A.13.13,0,0,1,81.06,157.4Z"/><path class="cls-21" d="M89.13,151.36a2.3,2.3,0,0,1,1.3,1.46,1.9,1.9,0,0,1-.49,1.71,2.18,2.18,0,0,1-1.68.63,2.4,2.4,0,0,1-1.24-.45,2.28,2.28,0,0,1-.93-2,2.22,2.22,0,0,1,1-1.69C87.58,150.73,88.61,151.12,89.13,151.36Z"/><path d="M88.22,155.29a2.5,2.5,0,0,1-1.29-.47,2.45,2.45,0,0,1-1-2.07,2.39,2.39,0,0,1,1-1.8c.61-.4,1.75.07,2.21.29h0a2.4,2.4,0,0,1,1.37,1.54,2,2,0,0,1-.52,1.84,2.28,2.28,0,0,1-1.79.68Zm-.5-4.21a1,1,0,0,0-.58.1,2.06,2.06,0,0,0-.91,1.59,2.18,2.18,0,0,0,.87,1.83,2.24,2.24,0,0,0,1.17.42,2,2,0,0,0,1.57-.59,1.73,1.73,0,0,0,.45-1.58,2.13,2.13,0,0,0-1.22-1.36h0A4,4,0,0,0,87.72,151.08Z"/><path class="cls-21" d="M82.57,148.78a2.09,2.09,0,0,0,.66,2.19,2.06,2.06,0,0,0,2.27.19,1.44,1.44,0,0,0,.77-1.51,2.08,2.08,0,0,0-.52-.83c-.31-.36-.61-.72-.92-1.07s-.4-.44-.82-.32A2.14,2.14,0,0,0,82.57,148.78Z"/><path d="M84.34,151.54a2.2,2.2,0,0,1-1.2-.46A2.16,2.16,0,0,1,84,147.3c.49-.15.67,0,1,.36l.93,1.07a2.27,2.27,0,0,1,.55.88,1.58,1.58,0,0,1-.84,1.67A2.11,2.11,0,0,1,84.34,151.54Zm0-4a1,1,0,0,0-.26,0,2,2,0,0,0-1.35,1.26h0A1.89,1.89,0,0,0,85.43,151a1.31,1.31,0,0,0,.71-1.36,2.15,2.15,0,0,0-.49-.77l-.93-1.07C84.54,147.63,84.45,147.53,84.31,147.52Z"/><circle cx="83.87" cy="149.53" r="0.31"/><circle cx="87.68" cy="152.84" r="0.31"/><path class="cls-15" d="M82.3,151.31s-2.5-1.86-4.56-.35c0,0-1.22,1.39,1.43,3.12a9.36,9.36,0,0,0,2.39.88l.3-.86s-1.11,1.12,1.58,3c0,0,.45.68,3.41.77,0,0,1.17-.1,1.4.57"/><path d="M88.12,158.52c-.19-.55-1.24-.48-1.25-.47h0c-2.74-.08-3.39-.67-3.51-.81a4.17,4.17,0,0,1-1.81-2.14,10.1,10.1,0,0,1-2.42-.89h0A3.46,3.46,0,0,1,77.33,152a1.58,1.58,0,0,1,.3-1.16l0,0c2.12-1.55,4.71.33,4.73.35l-.16.22s-2.44-1.77-4.39-.36a1.25,1.25,0,0,0-.22.94,3.2,3.2,0,0,0,1.63,2,9.54,9.54,0,0,0,2.22.85l0-.08a1.15,1.15,0,0,1,.27-.73l.43-.43-.42,1.21a.25.25,0,0,0,0,.08c0,.45.37,1.19,1.74,2.17h0v0s.51.63,3.3.71c.12,0,1.28-.08,1.53.66Z"/><path class="cls-22" d="M83.05,150.71s2.65,1.11,2.91,2S84.8,154,84.33,154s-1.44.08-1.69-.87S82.44,150.44,83.05,150.71Z"/><path d="M83.79,154.16a1.31,1.31,0,0,1-1.29-1c-.2-.78-.24-2.18.19-2.54a.38.38,0,0,1,.42,0,13.16,13.16,0,0,1,1.37.67c1,.53,1.5,1,1.61,1.41a.8.8,0,0,1-.09.69,2.83,2.83,0,0,1-2.21.8Zm-.85-3.34a.09.09,0,0,0-.07,0,3.33,3.33,0,0,0-.1,2.25c.21.77,1,.84,1.55.77a2.28,2.28,0,0,0,1.44-.67.5.5,0,0,0,.07-.46c-.2-.67-2.11-1.6-2.83-1.9h0Z"/><path d="M87.21,151h0a.8.8,0,0,1,.75-1.41.09.09,0,0,1,0,.12.09.09,0,0,1-.12.05.64.64,0,0,0-.79.27.63.63,0,0,0,.21.81.1.1,0,0,1,0,.13A.08.08,0,0,1,87.21,151Z"/><polygon class="cls-23" points="49.47 153.93 50.71 152.26 53.8 156.21 53.08 157.03 49.47 153.93"/><path d="M53.1,157.23,49.28,154,50.71,152,54,156.21Zm-3.44-3.32,3.41,2.93.55-.64-2.91-3.71Z"/><polygon class="cls-23" points="51.68 151.69 55.88 150.1 56.18 151.66 55.21 152.19 55.88 155.62 54.93 155.87 53.66 152.49 52.45 153.09 51.68 151.69"/><path d="M54.85,156l-1.27-3.36-1.18.59-.92-1.65,4.5-1.7.35,1.81-1,.53.67,3.46Zm-1.12-3.75L55,155.71l.7-.19-.67-3.41,1-.53-.25-1.29-3.89,1.47.63,1.15Z"/><path class="cls-23" d="M58.89,148.92l-.1,1.26s-.76-.38-.81.31.61,2,1.51,1.83.64-.81.64-.81l.79.81a2.07,2.07,0,0,1-2,1.52,3,3,0,0,1-2.39-3.68A2.1,2.1,0,0,1,58.89,148.92Z"/><path d="M58.89,154a2.78,2.78,0,0,1-2-1.3,2.94,2.94,0,0,1-.46-2.56,2.25,2.25,0,0,1,2.47-1.33.13.13,0,0,1,.11.15l-.09,1.27a.15.15,0,0,1-.07.11.15.15,0,0,1-.13,0c-.08,0-.35-.14-.49-.06s-.11.12-.12.26a2.12,2.12,0,0,0,.65,1.48.77.77,0,0,0,.69.2.73.73,0,0,0,.52-.32.38.38,0,0,0,0-.3.14.14,0,0,1,0-.17.14.14,0,0,1,.18,0l.79.8a.12.12,0,0,1,0,.13A2.21,2.21,0,0,1,59,154ZM58.74,149a2.63,2.63,0,0,0-.79.06,1.62,1.62,0,0,0-1.25,1.1,2.66,2.66,0,0,0,.43,2.31A2.51,2.51,0,0,0,59,153.7a1.9,1.9,0,0,0,1.81-1.35l-.49-.49a.5.5,0,0,1-.05.13,1,1,0,0,1-.71.47,1.07,1.07,0,0,1-.93-.26,2.33,2.33,0,0,1-.75-1.72.56.56,0,0,1,.26-.47.71.71,0,0,1,.57,0l.07-1Z"/><polygon class="cls-23" points="59.05 148.63 60.25 147.44 61.76 149.55 62.3 149.17 61.51 147.01 63.06 146.41 64.24 151.36 63.38 151.71 62.74 150.41 62.23 150.7 62.98 151.82 62.34 152.31 59.05 148.63"/><path d="M62.32,152.49l-3.46-3.87,1.41-1.39,1.52,2.13.34-.24-.8-2.19,1.83-.71,1.24,5.22-1.09.45-.63-1.28-.25.14.74,1.1Zm-3.08-3.86,3.12,3.49.43-.33L62,150.65l.77-.43.65,1.31.63-.25L63,146.59l-1.27.5.77,2.13-.73.52-1.5-2.08Z"/><polygon class="cls-23" points="63.95 145.64 63.36 147.66 65.49 147.98 65.43 150.36 66.26 150.42 67.58 145.52 65.61 144.72 65.47 146.59 63.95 145.64"/><path d="M66.36,150.57l-1.07-.08.06-2.39-2.17-.33.69-2.35,1.48.93.14-1.83,2.26.91Zm-.79-.34.58.05,1.27-4.68-1.68-.68-.15,1.91-1.55-1-.5,1.69,2.09.32Z"/><path class="cls-23" d="M72,146.55l.41-.78-1.21-.63L71,146,70,145.32c.45-1.44-.25-1.91-.25-1.91a1.08,1.08,0,0,0-1.52.16c-.8,1.38.46,1.87.46,1.87l.46.35s-.09.55-.15,1.06-.22,1.44.93,1.78,1.74-1.28,1.74-1.28l.76.5.46-1ZM69.36,145s-1-.07-.47-.9C68.89,144.1,69.67,143.78,69.36,145Zm.67,2.42c-.49-.3-.2-1.06-.2-1.06l1,.63S70.52,147.71,70,147.42Z"/><path d="M70.12,148.82l-.27,0a1.47,1.47,0,0,1-1-1.88v-.06c.05-.39.11-.8.14-1l-.38-.29a1.41,1.41,0,0,1-.73-.76,1.56,1.56,0,0,1,.22-1.3h0a1.21,1.21,0,0,1,1.7-.2s.76.52.34,2l.81.52.2-.84,1.48.77-.4.77.83.33-.6,1.24-.74-.49C71.46,148.11,70.9,148.88,70.12,148.82Zm-1.82-5.17a1.3,1.3,0,0,0-.19,1.06,1.19,1.19,0,0,0,.59.6h0l.54.43v.08s-.09.55-.15,1.05v0c-.06.51-.16,1.29.84,1.58s1.57-1.18,1.57-1.2l.06-.16.77.51.33-.69-.83-.34.41-.79-.92-.48-.21.88-1.32-.85,0-.1c.41-1.28-.13-1.72-.18-1.76A1,1,0,0,0,68.3,143.65Zm1.92,4a.52.52,0,0,1-.26-.08c-.58-.35-.27-1.19-.26-1.23l.06-.16,1.24.79,0,.1a1,1,0,0,1-.53.56A.44.44,0,0,1,70.22,147.62Zm-.3-1c0,.21-.08.56.18.72a.26.26,0,0,0,.24,0,.67.67,0,0,0,.31-.29Zm-.58-1.44a.86.86,0,0,1-.67-.37.76.76,0,0,1,.1-.75l0,0h0a.55.55,0,0,1,.55.05c.2.17.23.5.1,1l0,.11h-.12Zm-.36-.93a.53.53,0,0,0-.07.43.47.47,0,0,0,.34.2c.09-.43,0-.57,0-.61S69,144.2,69,144.21Z"/><path class="cls-23" d="M74.57,141l.4,1.28s-1.37-.31-1.3.55a2.13,2.13,0,0,0,1.36.83,1.86,1.86,0,0,1,1.31,1.9c-.12.54-.26,1.38-2.53,1.32l-.28-1.43.71,0a.47.47,0,0,0,.47-.51c0-.51-.78-.66-.78-.66s-1.69-.34-1.71-1.58.58-1.49,1.3-1.57S74.57,141,74.57,141Z"/><path d="M73.7,147l-.34-1.71.89,0a.32.32,0,0,0,.32-.37c0-.38-.66-.52-.67-.52a3.78,3.78,0,0,1-.89-.35,1.57,1.57,0,0,1-.92-1.37c0-1.35.67-1.62,1.41-1.71a10.1,10.1,0,0,0,1-.16l.13,0,.51,1.63-.24-.06c-.2,0-.79-.12-1,.09a.34.34,0,0,0-.1.28,2,2,0,0,0,1.24.75,1.63,1.63,0,0,1,1.06.74,1.9,1.9,0,0,1,.36,1.32v0c-.13.58-.32,1.46-2.66,1.4Zm0-1.42.23,1.15c2,0,2.15-.68,2.27-1.19v0a1.67,1.67,0,0,0-.32-1.11,1.39,1.39,0,0,0-.87-.62,2.29,2.29,0,0,1-1.46-.89l0,0v0a.64.64,0,0,1,.2-.55,1.38,1.38,0,0,1,1-.18l-.29-1c-.16,0-.47.08-1,.14-.75.08-1.18.35-1.17,1.43s1.58,1.44,1.6,1.44.9.19.89.8a.61.61,0,0,1-.61.65Z"/><path class="cls-23" d="M78.6,140.46a1.39,1.39,0,0,0-1.84-.44c-1.12.63-1.23,2.27-.91,3.25s1,2.11,2.23,1.91a1.4,1.4,0,0,0,1.24-.88l-.44-.76s-.34.56-.84.49-1-.83-1-1.56a4.62,4.62,0,0,1,.14-1.16.41.41,0,0,1,.6-.25c.48.21.34.18.34.18Z"/><path d="M77.67,145.34c-.84-.07-1.53-.77-2-2-.32-1-.24-2.73,1-3.41a1.52,1.52,0,0,1,2,.48l.05.08-.46.78a.06.06,0,0,1,0,0,.14.14,0,0,1-.18.09l-.18,0,0-.05-.21-.09a.35.35,0,0,0-.28,0,.33.33,0,0,0-.14.18,4.84,4.84,0,0,0-.13,1.12c0,.59.39,1.36.86,1.43s.7-.43.7-.43l.13-.2.58,1,0,.07a1.54,1.54,0,0,1-1.36,1A2,2,0,0,1,77.67,145.34ZM77.54,140a1.27,1.27,0,0,0-.71.18c-1.08.61-1.14,2.2-.84,3.08.56,1.69,1.43,1.93,2.07,1.82h0a1.24,1.24,0,0,0,1.09-.73l-.3-.52a1,1,0,0,1-.85.38,1.72,1.72,0,0,1-1.1-1.7,5.21,5.21,0,0,1,.14-1.2.63.63,0,0,1,.29-.35.61.61,0,0,1,.51,0l.24.1.33-.57A1.34,1.34,0,0,0,77.54,140Z"/><path class="cls-23" d="M85.81,142.47,87,141.34l-3.45-4-.94.58,1,5.31,1.31-.21-.42-1.51.44-.31ZM84,140.76l-.37-1.45.89,1.09Z"/><path d="M83.57,143.41a.14.14,0,0,1-.12-.12l-1-5.3a.13.13,0,0,1,.06-.15l.94-.57a.14.14,0,0,1,.18,0l3.45,4a.14.14,0,0,1,0,.19l-1.15,1.13a.12.12,0,0,1-.1,0h0a.14.14,0,0,1-.11-.06l-.81-1.11-.25.17L85,143a.14.14,0,0,1,0,.11.17.17,0,0,1-.1.07l-1.3.2ZM82.72,138l1,5.08,1-.16-.37-1.36a.12.12,0,0,1,0-.15l.44-.31a.14.14,0,0,1,.19,0l.8,1.1.94-.93-3.29-3.77ZM84,140.9h0a.12.12,0,0,1-.09-.09l-.37-1.45a.13.13,0,0,1,.07-.16.14.14,0,0,1,.17,0l.89,1.09a.11.11,0,0,1,0,.11.14.14,0,0,1,0,.1l-.53.36Zm-.07-1,.17.65.23-.16Z"/><polygon class="cls-23" points="84.67 137.47 87.71 135.41 88.2 136.98 87.57 137.29 88.35 140.69 87.58 141.23 86.12 138.09 85.23 138.52 84.67 137.47"/><path d="M87.53,141.44l-1.48-3.16-.88.42-.68-1.27,3.3-2.23.58,1.85-.64.32.78,3.38Zm-1.34-3.53L87.64,141l.56-.39-.79-3.42.62-.3-.39-1.28-2.79,1.89.44.82Z"/><path class="cls-23" d="M90.63,136.07l.36-.83a1.56,1.56,0,0,0-1.68-.37c-1,.39-1.15,2.37-.57,3.39a2.5,2.5,0,0,0,2.48,1.25,3,3,0,0,0,.87-.85l-.45-.66a.89.89,0,0,1-1.17.34,1.69,1.69,0,0,1-.82-1.42s-.11-.7.28-.95A.55.55,0,0,1,90.63,136.07Z"/><path d="M90.77,139.71a3,3,0,0,1-2.16-1.38,3.43,3.43,0,0,1-.16-2.62,1.5,1.5,0,0,1,.81-1,1.7,1.7,0,0,1,1.83.41l.06.07-.48,1.1-.14-.16a.42.42,0,0,0-.53-.08c-.3.2-.21.81-.21.82v0s0,1,.74,1.29a.74.74,0,0,0,1-.28l.11-.2.62.92,0,.08a3.1,3.1,0,0,1-.92.9A.92.92,0,0,1,90.77,139.71ZM90,134.9a1.37,1.37,0,0,0-.61.1,1.27,1.27,0,0,0-.66.8,3.17,3.17,0,0,0,.15,2.39,2.42,2.42,0,0,0,2.3,1.2,2.81,2.81,0,0,0,.76-.73l-.28-.42a1,1,0,0,1-1.22.23,1.78,1.78,0,0,1-.9-1.54c0-.09-.11-.8.33-1.08a.66.66,0,0,1,.73,0l.24-.57A1.4,1.4,0,0,0,90,134.9Z"/><polygon class="cls-23" points="90.89 133.89 92.31 133.29 93.06 135.82 93.77 135.59 93.62 133.29 95.09 133.27 94.71 138.29 93.87 138.23 93.69 136.72 93.11 136.82 93.31 138.19 92.53 138.54 90.89 133.89"/><path d="M92.45,138.73l-1.74-4.91,1.69-.72.75,2.54.48-.15-.16-2.33,1.77,0-.4,5.31-1.1-.08-.17-1.48-.31.06.21,1.33ZM91.06,134l1.55,4.38.55-.25L93,136.71l.86-.16L94,138.1l.59,0,.36-4.73-1.17,0,.15,2.26-1,.3-.75-2.51Z"/><polygon class="cls-23" points="94.84 132.1 96.28 131.39 97.1 134.05 99.16 131.52 99.87 133.01 97.3 135.06 97.6 137.26 96.22 137.61 96.36 134.89 94.84 132.1"/><path d="M96.07,137.79l.15-2.87L94.65,132l1.72-.84.79,2.56,2-2.5.85,1.79-2.59,2.06.31,2.25Zm-1-5.62,1.47,2.69-.14,2.57,1.09-.28L97.16,135l2.54-2-.57-1.19-2.08,2.56-.85-2.75Z"/><path class="cls-23" d="M83,142.91,81.87,142a2.32,2.32,0,0,0,.66-1.71A1.6,1.6,0,0,0,81,138.87a3.15,3.15,0,0,0-1.8.51l.53,5,1.35,0L81,142.62l1,1.34Zm-1.87-1.64a.32.32,0,0,1-.32.07c-.13-.07-.13-.25-.13-.39s0-.72.13-.82.49.26.54.43A.69.69,0,0,1,81.09,141.27Z"/><path d="M79.62,144.55l-.56-5.24.07,0a3.28,3.28,0,0,1,1.88-.54,1.74,1.74,0,0,1,1.66,1.51,2.62,2.62,0,0,1-.59,1.73l1.09.94-1.26,1.26-.77-1.08.09,1.48Zm-.26-5.1.51,4.82,1.07,0-.13-2.15,1.13,1.6.82-.82L81.65,142l.14-.11a2.29,2.29,0,0,0,.6-1.58S82.17,139,81,139A3.15,3.15,0,0,0,79.36,139.45Zm1.48,2.05a.2.2,0,0,1-.13,0c-.23-.12-.21-.42-.2-.52v-.15c0-.36,0-.68.19-.78a.35.35,0,0,1,.3,0,1,1,0,0,1,.44.52.83.83,0,0,1-.26.85h0A.47.47,0,0,1,80.84,141.5Zm0-1.25h0c-.07.06-.06.42-.06.54a1,1,0,0,1,0,.17c0,.18,0,.24.06.26s.1,0,.17-.06h0a.55.55,0,0,0,.16-.56.65.65,0,0,0-.27-.34Z"/><path class="cls-17" d="M50.24,145.71l2-1.24s.64-.66.62.38-.16,4.16-1,4.1-1.19-1-1.19-1l.5-.52s.36.61.61.57.56-1.52.34-2.44l-1.83,1.34Z"/><path class="cls-17" d="M57.82,144.65s-1.68,1.91-1.37,1.5a6.6,6.6,0,0,0,.49-2,.48.48,0,0,0-.58-.53,1.45,1.45,0,0,0-.58.34c-.92.78-.16,2.2-.16,2.2s-.26.59-.48.58-.33-2.16-.45-2.48-.85.87-.85.87l-.06-1.32-.49,0,.19,4.08.46,0s0-.61,0-1.64.41-.24.41-.24,0,1.76.41,1.73,1.16-1.09,1.16-1.09c.24,1.29,2.13-1.6,2.13-1.6Zm-1.48.35a.86.86,0,0,1-.38.52,1.52,1.52,0,0,1-.1-.67.55.55,0,0,1,.09-.33c.08-.1.26-.17.35-.05A.65.65,0,0,1,56.34,145Z"/><path class="cls-17" d="M65.49,155.86s.92-.82.81-1.4-.79-.42-.79-.42-1.59.81-1.79,2.05.25,1.21.25,1.21a5.42,5.42,0,0,0,1.78-.29.36.36,0,0,1,.13.63c-.41.43-1,1-1.21.85s.13-.44.13-.44.59-.69-.29-.28c0,0-.78.53-.52,1.18s1.61-.25,1.61-.25,1.29-.95,1.16-1.5-.32-.82-.9-.77-1.48.39-1.51-.05a2.83,2.83,0,0,1,.52-1.21s.36-.38.5-.27-.15.64-.15.64S65.11,156.07,65.49,155.86Z"/><path class="cls-17" d="M73.61,151.32l-.51.25.18,1.28s.1,1-.17,1-.54-1.56-.54-1.56l-.63.39v1.39s0,.38-.14.4-.13-.08-.23-.21a16.13,16.13,0,0,1-.34-1.88l-.5.27.14,1.22-.22.07a.75.75,0,0,0-.28-.61.74.74,0,0,0-.89.11c-.43.4-.33,2.13-.33,2.13s-.24.51-.36.52-.17-.26-.17-.26a10.39,10.39,0,0,0-.08-2c-.17-.17-.49.16-.59.28s-.39.44-.39.57v-2.13l-.78.42.33,4.89.59-.32s0-2.36.15-2.37.18.24.18.24,0,.61,0,1.09.24.69.52.67.74-1,.74-1l.3.35c.52.27.78-.11,1-.36a6,6,0,0,0,.31-1.69c.15,0,.24.19.28.5s.22.87.72.86.5-1.88.51-1.69a5.42,5.42,0,0,0,.64,1s.5.33.8-.77A8,8,0,0,0,73.61,151.32ZM70,155.75c-.14,0-.26-.33-.27-.75s.09-.76.23-.76.26.33.27.75S70.13,155.75,70,155.75Z"/></g><path class="cls-8" d="M37.52,81.74a9.51,9.51,0,0,1-.06-19h.33l.13.3a54.15,54.15,0,0,0,8,12.91l.23.26-.15.3A9.49,9.49,0,0,1,37.52,81.74Zm-.37-18A8.51,8.51,0,1,0,45,76.32,55.11,55.11,0,0,1,37.15,63.72Z"/><path class="cls-6" d="M37.15,63.72l.64-1s5.73,11.22,8.78,13.41l-2.69.2-6.79-9.78Z"/><path class="cls-6" d="M101,176.55,105.83,162a3.86,3.86,0,0,0-2.42-4.87L95,154.34a3.84,3.84,0,0,0-4.86,2.41l-6,18.39Zm-4.81-11.88a1.25,1.25,0,0,1,1-.61,1.09,1.09,0,0,1,.36,0h0a1.39,1.39,0,0,1-.06.19,1.31,1.31,0,0,1-1,.74.79.79,0,0,1-.4,0h0A.64.64,0,0,1,96.14,164.67Zm-2.76,1a1.65,1.65,0,0,1,.62-.8,1.36,1.36,0,0,1,1-.21,1.13,1.13,0,0,1,.5.22l.33.24.06,0a.31.31,0,0,0,.21.06h.48a1.24,1.24,0,0,1,.43.06,1.46,1.46,0,0,1,.38.18,1.22,1.22,0,0,1,.5.64l0,0A1.13,1.13,0,0,0,97,167a1.21,1.21,0,0,0,.4,1.22l-.21.26a3.36,3.36,0,0,1-.84.66.88.88,0,0,1-.45.11.7.7,0,0,1-.34-.12l-.27-.21a1.23,1.23,0,0,0-.81-.24,2.41,2.41,0,0,1-.38,0,.6.6,0,0,1-.44-.26,1.91,1.91,0,0,1-.23-.45,3.54,3.54,0,0,1-.23-1.51A2.88,2.88,0,0,1,93.38,165.69Z"/></g></g></svg>