<svg xmlns="http://www.w3.org/2000/svg" viewBox="0 0 152.3 214.7"><defs><style>.cls-1{fill:#b1bfcb;}.cls-2{fill:#394cd2;}.cls-3{fill:#dbddfc;}.cls-4{fill:#8990ee;}.cls-5{fill:#babef8;}.cls-6{fill:#f9fafc;}.cls-7{fill:#4e5de2;}.cls-8{fill:#f9b781;}.cls-9{fill:#e7ecee;}</style></defs><title>Asset 8</title><g id="Layer_2" data-name="Layer 2"><g id="OBJECTS"><path class="cls-1" d="M8.11,160.18c-1.79-1-4.75.07-6,1.66s-1.46,2.48-.13,4,6,2.95,6.67,2.59a13.34,13.34,0,0,0,0-8.38"/><path class="cls-1" d="M152.24,170.45c-.44-2.09-2.07-3-4-3.91-1.16-.52-4.85-2-5.3-1.34-1.35,2.14-3.83,5.36-1.61,6.42C144.28,173,153.14,174.79,152.24,170.45Z"/><path class="cls-2" d="M61.48,102.13a2.25,2.25,0,0,0,1.16,1,1.57,1.57,0,0,0,1.74-1.21,4.48,4.48,0,0,0-.15-2.32L61.43,88A6,6,0,0,0,60,84.8c-1.22-1.14-3.09-1.09-4.75-1a7.11,7.11,0,0,0,.64,4.58c.64,1.43,1.52,2.74,2.18,4.17a15,15,0,0,1,1.37,5.31,3.66,3.66,0,0,0,.39,2C60.34,100.65,60.94,101.38,61.48,102.13Z"/><path class="cls-3" d="M61.61,93.42c0,3.33-1.75,8.13,0,11,1.34,2.28,5.18,2.46,7.76,3.08a29.81,29.81,0,0,0,7.9.49,28.46,28.46,0,0,0,8.23-1,9.66,9.66,0,0,0,6.13-5.24,14.41,14.41,0,0,0,.64-5.44c-.15-13.5-1-27-1.18-40.5-2.38,3.44-4,6.87-6.4,10.31-2.67,3.85-5.39,7.76-9,10.68-4.11,3.28-9.14,5.1-14.14,6.54-3.44,1-2.61,1.2-1.15,3.78A13.06,13.06,0,0,1,61.61,93.42Z"/><path class="cls-4" d="M61.76,93.8c7-.19,14.09-4.37,18.44-9.9s7.32-14.41,9.21-21.18c-2,7.11-9.81,15.47-16.17,18.56-3.69,1.8-8.48,2.08-12.45,2.82-2.83.52-1.91.45-.49,3A14.12,14.12,0,0,1,61.76,93.8Z"/><path class="cls-5" d="M8.6,160.91v39c.94,4.46,4.71,8,8.83,9.91s8.71,2.56,13.24,3.05a317.79,317.79,0,0,0,83.74-2.07c1-3.6-1.47-7.4-4.71-9.24s-7.09-2.15-10.8-2.44L42.08,194.8c-3.59-.28-7.89-1.06-9.19-4.41s1.17-6.57,2.29-9.84a15.43,15.43,0,0,0-2.78-14.31,20.35,20.35,0,0,0-13-7.12C15.48,158.57,12.53,160.91,8.6,160.91Z"/><path class="cls-2" d="M46.8,18.68c.53-.74,1.11-1.66.76-2.5s-1.54-1.11-2.51-1a11.23,11.23,0,0,0-7.53,4.23,21.9,21.9,0,0,0-3.9,7.9A42.55,42.55,0,0,0,31.86,39c0,1.55-.16,10.5,1.92,10.58,1.28,0,2.25-7.86,2.65-9.28A68.44,68.44,0,0,1,46.8,18.68Z"/><path class="cls-4" d="M23.26,166.25c4.61,2.81,7.3,8.05,8.27,13.35s.43,10.76-.12,16.13c9.9,0,19.84.06,29.64,1.46s19.52,4.22,27.91,9.46c2.76,1.72,5.39,3.71,8.44,4.83,4,1.46,8.39,1.31,12.65,1.13,5.33-.22,10.77-.46,15.75-2.35s9.54-5.76,10.82-10.94c-7.84,3.35-16.54,4.28-25.06,3.9s-16.91-2-25.28-3.68c-14.34-2.83-28.87-6.57-43-8.47-2.41-.33-4.94-1-6.58-2.82-2.77-3-.91-8.3-1-12.4-.12-9,1.69-16.81-17.73-17.14-3-.05-9.39-1.61-9.39,1.37,0,2.54.08,1.58,0,8.38,1.81-1.78,1.48-2.61,4.42-3.53A12.79,12.79,0,0,1,23.26,166.25Z"/><path class="cls-6" d="M8.6,168.46s-20.5-7.22,9.5-9.55l11.33,2.33s.67,3.67,6,7.67v16.33l77.33-1.33V172.08s7.67-9.5,25-7.84,14.34,7.84,14.34,7.84-2.34-39.84-7-49.5-8.67-16.67-19.67-19-33.33-3.34-33.33-3.34a21.89,21.89,0,0,1-18.34,7.13C62.1,106.24,60.1,98.91,60.1,98.91H40.76s-14-3.67-21.66,12.67S1,153.58,1,153.58-4.11,168.51,8.6,168.46Z"/><path class="cls-5" d="M30.85,192.66s3.25-16,32-17.5,49.91,3.5,49.91,3.5v-6.58s6.84-8.39,20.59-8l9.78,1s2.22,28.4-10.78,44.15c0,0-9.77,4.5-34.5-3.75s-21.64-8-21.64-8S49.85,191.16,30.85,192.66Z"/><ellipse class="cls-3" cx="62.85" cy="47.72" rx="28.58" ry="37.19"/><path class="cls-2" d="M67.47,39.48a.49.49,0,0,1-.41-.21c-5-6.9-10.88-3-11.13-2.8a.5.5,0,1,1-.57-.82c.07,0,7-4.65,12.51,3a.5.5,0,0,1-.11.69A.46.46,0,0,1,67.47,39.48Z"/><path class="cls-2" d="M37.6,43.55a.39.39,0,0,1-.18,0,.49.49,0,0,1-.29-.64c2.67-7,8.71-5.4,8.77-5.38a.5.5,0,0,1,.35.61.52.52,0,0,1-.62.35c-.21-.06-5.23-1.32-7.56,4.78A.51.51,0,0,1,37.6,43.55Z"/><ellipse class="cls-2" cx="63.6" cy="45.41" rx="2.83" ry="3.17"/><circle class="cls-2" cx="42.69" cy="50.65" r="2.92"/><path class="cls-2" d="M50.6,61.2a4.26,4.26,0,0,1-3.31-1.49,3.33,3.33,0,0,1-.38-3.66,2.83,2.83,0,0,1,2.8-1.39l.14-4.27,1,0-.19,5.68L50,55.77a1.78,1.78,0,0,0-2.19.77,2.36,2.36,0,0,0,.29,2.54A3.24,3.24,0,0,0,50.6,60.2Z"/><path class="cls-2" d="M55.75,70.38c-.28,0-.57,0-.85,0a.5.5,0,0,1,.07-1,13.5,13.5,0,0,0,12.84-7.74.5.5,0,0,1,.91.41A14.56,14.56,0,0,1,55.75,70.38Z"/><path class="cls-7" d="M39,78.71c-2.58-7.58-6.91-14.66-8-22.59-1-6.84.53-13.93-1-20.66-.9-3.9-2.82-7.7-2.47-11.69.4-4.65,3.78-8.48,7.36-11.48C43.9,4.7,55.5,0,67.3,0S91,5,98.7,13.91C109.13,26,110.8,43.14,116.7,58c3.15,7.94,7.67,15.85,7,24.37-.62,8-5.69,14.84-10.57,21.2a31.87,31.87,0,0,1-6,6.48,10.68,10.68,0,0,1-8.31,2.22l.8-6.17A20.76,20.76,0,0,1,84.11,111c6-4.62,8.09-12.89,6.36-20.3.31-14.25,1-28.55.3-42.79-.14-2.84-.38-5.87-2.13-8.11S83.69,36.44,82,34s-1.56-5.81-3.15-8.33c-2-3.18-6.19-4.17-10-4.3s-7.68.31-11.17-1.11c-2.78-1.13-5.12-3.39-8.09-3.83-4.91-.72-9,3.79-11.24,8.22a44.53,44.53,0,0,0-3.32,30.78A47.48,47.48,0,0,0,52.32,81.29c3.2,2.43,6.86,4.66,8.55,8.31,1.9,4.12.63,9.29-2.47,12.61a17.47,17.47,0,0,1-12.29,5l-.9-13.38a10.76,10.76,0,0,1-3.73,8.45c-.95.84-6,4.18-7.25,2.49-.75-1,2.17-3.74,2.71-4.42a16,16,0,0,0,3.73-8.15A30.13,30.13,0,0,0,39,78.71Z"/><path class="cls-3" d="M88.43,39.91s12.67-12,11.33,7.81c0,0,0,6.86-3.91,7.52a50.63,50.63,0,0,1-5.12.72Z"/><path class="cls-2" d="M95.59,50a.5.5,0,0,1-.47-.33,13.68,13.68,0,0,0-3.85-5.9l-.42-.35,3.56-3.55a.49.49,0,0,1,.7.7l-2.79,2.79a15.08,15.08,0,0,1,3.74,6,.5.5,0,0,1-.31.64A.45.45,0,0,1,95.59,50Z"/><path class="cls-8" d="M94.15,67.52a8.3,8.3,0,1,1,8.29-8.3A8.31,8.31,0,0,1,94.15,67.52Zm0-15.59a7.3,7.3,0,1,0,7.29,7.29A7.31,7.31,0,0,0,94.15,51.93Z"/><path class="cls-9" d="M25.2,144.76a21.2,21.2,0,0,1,9.9-11,9.29,9.29,0,0,1-.69,6.33c-.87,2-2.1,3.8-3.09,5.73-2.53,5-2.86,10.09-2.36,15.53C22.77,157.76,22.69,151.2,25.2,144.76Z"/><path class="cls-9" d="M108.69,164.32a17,17,0,0,0,.12,4.94,5.72,5.72,0,0,0,2.74,3.93,90.75,90.75,0,0,1,.5-30.36c.47-2.49,1.35-6.43-.64-8.44-2.2,2.33-1.34,11.16-1.59,14.48Z"/><path class="cls-2" d="M100.86,106.47l-.06-1a8.34,8.34,0,0,0,5.87-3.47,18.91,18.91,0,0,0,2.91-6.62,48.37,48.37,0,0,0-1.88-30.27l.93-.37a49.34,49.34,0,0,1,1.91,30.9,19.8,19.8,0,0,1-3.07,7A9.17,9.17,0,0,1,100.86,106.47Z"/><path class="cls-2" d="M100.91,106.1l-1-.32a66.35,66.35,0,0,0,3.31-27.07l1-.09A67.26,67.26,0,0,1,100.91,106.1Z"/><path class="cls-2" d="M50,16.36a.59.59,0,0,1-.23-.05.5.5,0,0,1-.21-.68,26.8,26.8,0,0,1,15.87-13,.5.5,0,0,1,.28,1A25.8,25.8,0,0,0,50.45,16.09.48.48,0,0,1,50,16.36Z"/><path class="cls-8" d="M37.44,80.61a9.51,9.51,0,0,1-.06-19h.33l.13.29a54.38,54.38,0,0,0,8,12.92l.22.25-.15.3A9.47,9.47,0,0,1,37.44,80.61Zm-.38-18a8.51,8.51,0,1,0,7.83,12.6A55.9,55.9,0,0,1,37.06,62.6Z"/><path class="cls-3" d="M94.08,54a1.16,1.16,0,0,0,.25.66,1.08,1.08,0,0,0,1,.11,8.09,8.09,0,0,0,2-.6,3,3,0,0,0,1.46-1.44,1.85,1.85,0,0,0-.29-2,2.93,2.93,0,0,0-2.22-.56c-.6,0-2.49-.28-2.66.44a4.63,4.63,0,0,0,.19,1.52Z"/><path class="cls-7" d="M41,34.16s2.83-4.89,1.85-7.32L42,34.31l9-1.53c1.62-.28,3.36-.61,4.51-1.78,1.82-1.85,1.42-4.86.9-7.39l.22,7.59,23.74-5.74C79.34,23,76.68,21.55,74,21s-5.39-.49-8.08-.84c-4.27-.57-8.3-2.26-12.49-3.25s-8.85-1.22-12.56,1a14.47,14.47,0,0,0-5.66,6.93,30.12,30.12,0,0,0-1.44,4.46c-.21.88-2,5.48-1,5.48C34,34.73,39.54,35,41,34.16Z"/><path class="cls-4" d="M143.17,172.35c.23-2.56.32-7.26,0-7.34-1.1-.21-4.15-.68-5.37-.77-4.29-.32-7.95-.59-12.19.23-2.53.5-8.46,2.63-9.94,5-2.33,3.8,4.85-.19,6.82-.58A29.61,29.61,0,0,1,143.17,172.35Z"/></g></g></svg>